<svg xmlns="http://www.w3.org/2000/svg" viewBox="0 0 800 800"><defs><style>.cls-1{fill:#fff;}</style></defs><title>home-line</title><g id="Layer_3" data-name="Layer 3"><path class="cls-1" d="M574.56,701H537a1.93,1.93,0,0,0-1.93,1.93v37.53a1.93,1.93,0,0,0,1.93,1.93h37.52a1.93,1.93,0,0,0,1.93-1.93V702.88A1.93,1.93,0,0,0,574.56,701Zm-1.93,37.53H539V704.81h33.66Z"/><path class="cls-1" d="M746.49,710H601.07a1.93,1.93,0,0,0,0,3.86H746.49a1.93,1.93,0,0,0,0-3.86Z"/><path class="cls-1" d="M652.85,731.84H601.07a1.93,1.93,0,0,0,0,3.86h51.77a1.93,1.93,0,1,0,0-3.86Z"/><path class="cls-1" d="M723.27,731.84H673.78a1.93,1.93,0,0,0,0,3.86h49.49a1.93,1.93,0,0,0,0-3.86Z"/><path class="cls-1" d="M410.18,523.74a111.21,111.21,0,0,0-76.68,191.81l.29.28c.64.61,1.28,1.22,1.94,1.81a111.22,111.22,0,0,0,29.19,19,1.91,1.91,0,0,0,.33.15,111.31,111.31,0,0,0,89.9,0l.24-.11a111.17,111.17,0,0,0,29.25-19c.62-.56,1.22-1.13,1.83-1.7l.41-.39,0,0a111.22,111.22,0,0,0-76.7-191.79Zm46.23,208.18V664.36a1.93,1.93,0,1,0-3.86,0v69.3a107.42,107.42,0,0,1-84.76,0v-69.3a1.93,1.93,0,0,0-3.86,0v67.55a107.41,107.41,0,0,1-25.63-17.14c-.53-.47-1-1-1.55-1.45V668c-.16-1.5-3.59-36.8,26.65-42.58h28.45L408.64,647a1.93,1.93,0,0,0,3,0l16.82-21.62,28.08,0c30.56,5.8,27.18,41.11,27,42.82v45.14c-.51.49-1,1-1.56,1.45A107.35,107.35,0,0,1,456.41,731.92Zm31-22.4V668.39c0-.4,3.93-40.35-30.5-46.85H427.57a1.93,1.93,0,0,0-1.52.74l-15.88,20.4-15.86-20.4a1.93,1.93,0,0,0-1.52-.75l-29.76,0C329,628,332.86,668,332.89,668.18v41.33A106.38,106.38,0,0,1,302.77,635a107.4,107.4,0,0,1,214.8,0A106.35,106.35,0,0,1,487.46,709.51Z"/><path class="cls-1" d="M65.54,612.72h70.8a1.93,1.93,0,0,0,1.93-1.93V540a1.93,1.93,0,0,0-1.93-1.93H65.54A1.93,1.93,0,0,0,63.61,540v70.8A1.93,1.93,0,0,0,65.54,612.72Zm1.93-70.8h66.94v66.95H67.47Z"/><path class="cls-1" d="M64.88,649.79H192.55a1.31,1.31,0,0,0,0-2.63H64.88a1.31,1.31,0,0,0,0,2.63Z"/><path class="cls-1" d="M65.54,692.21H111.2a1.93,1.93,0,1,0,0-3.86H65.54a1.93,1.93,0,1,0,0,3.86Z"/><path class="cls-1" d="M176.54,728.46h-111a1.93,1.93,0,1,0,0,3.86h111a1.93,1.93,0,0,0,0-3.86Z"/><path class="cls-1" d="M162.56,612.72h97a1.93,1.93,0,1,0,0-3.86h-97a1.93,1.93,0,1,0,0,3.86Z"/><path class="cls-1" d="M162.56,577.32h97a1.93,1.93,0,1,0,0-3.86h-97a1.93,1.93,0,1,0,0,3.86Z"/><path class="cls-1" d="M231.07,637.06a51.08,51.08,0,1,0,51.08,51.07A51.13,51.13,0,0,0,231.07,637.06Zm0,98.29a47.22,47.22,0,1,1,47.22-47.22A47.27,47.27,0,0,1,231.07,735.35Z"/><path class="cls-1" d="M233,686.2V655a1.93,1.93,0,1,0-3.86,0V686.2H198a1.93,1.93,0,1,0,0,3.86h31.19v31.19a1.93,1.93,0,1,0,3.86,0V690.06h31.19a1.93,1.93,0,0,0,0-3.86Z"/><path class="cls-1" d="M410.17,551.11a34.75,34.75,0,1,0,34.76,34.76A34.79,34.79,0,0,0,410.17,551.11Zm0,65.65a30.9,30.9,0,1,1,30.9-30.9A30.93,30.93,0,0,1,410.17,616.76Z"/></g><g id="Layer_2" data-name="Layer 2"><path class="cls-1" d="M334.18,59.21A15.14,15.14,0,1,0,349.3,74.35,15.16,15.16,0,0,0,334.18,59.21Zm0,26.42a11.28,11.28,0,1,1,11.27-11.28A11.3,11.3,0,0,1,334.18,85.63Z"/><path class="cls-1" d="M410.18,59.21a15.14,15.14,0,1,0,15.14,15.14A15.16,15.16,0,0,0,410.18,59.21Zm0,26.42a11.28,11.28,0,1,1,11.28-11.28A11.3,11.3,0,0,1,410.18,85.63Z"/><path class="cls-1" d="M486.18,59.21a15.14,15.14,0,1,0,15.14,15.14A15.15,15.15,0,0,0,486.18,59.21Zm0,26.42a11.28,11.28,0,1,1,11.29-11.28A11.29,11.29,0,0,1,486.18,85.63Z"/><path class="cls-1" d="M709.68,49.24H622.92a40.26,40.26,0,0,0-40.21,40.22V101.5H551.24c-.41,0-41.12.5-51.08,44.17a1.93,1.93,0,0,0,1.45,2.31,1.86,1.86,0,0,0,.43,0,1.93,1.93,0,0,0,1.88-1.5c9.27-40.61,45.78-41.17,47.32-41.17h31.47v12.05a40.26,40.26,0,0,0,40.21,40.21h86.76a40.26,40.26,0,0,0,40.22-40.21v-28A40.26,40.26,0,0,0,709.68,49.24ZM746,117.41a36.4,36.4,0,0,1-36.36,36.35H622.92a36.39,36.39,0,0,1-36.35-36.35V105.36h27.77a10.27,10.27,0,0,0,10.07,8.33h39.4a10.26,10.26,0,1,0,0-20.52h-39.4a10.27,10.27,0,0,0-10.07,8.33H586.57V89.45a36.4,36.4,0,0,1,36.35-36.36h86.76A36.4,36.4,0,0,1,746,89.45Zm-128-14a6.41,6.41,0,0,1,6.4-6.4h39.4a6.4,6.4,0,1,1,0,12.8h-39.4A6.41,6.41,0,0,1,618,103.43Z"/><path class="cls-1" d="M659.15,120.35H629.08a1.93,1.93,0,0,0,0,3.86h30.08a1.93,1.93,0,0,0,0-3.86Z"/></g><g id="Layer_1" data-name="Layer 1"><path class="cls-1" d="M563.66,627.94a1.93,1.93,0,0,1,0-3.86l182.92-.54h0a1.93,1.93,0,0,1,0,3.86l-182.92.54Z"/><path class="cls-1" d="M656.36,265.91a20.49,20.49,0,0,0,13.12-4.74l15.66,15.66a1.93,1.93,0,1,0,2.73-2.73l-15.66-15.66a20.57,20.57,0,1,0-15.85,7.46Zm0-37.3a16.72,16.72,0,1,1-16.72,16.72A16.74,16.74,0,0,1,656.36,228.62Z"/><path class="cls-1" d="M175.54,370.08a58,58,0,1,0,58,58A58,58,0,0,0,175.54,370.08Zm0,112.1a54.12,54.12,0,1,1,54.12-54.12A54.19,54.19,0,0,1,175.54,482.18Z"/><path class="cls-1" d="M225.2,139.71H89.57a1.93,1.93,0,0,0-1.93,1.93V277.27a1.93,1.93,0,0,0,1.93,1.93H225.2a1.93,1.93,0,0,0,1.93-1.93V141.64A1.93,1.93,0,0,0,225.2,139.71Zm-1.93,135.62H91.5V143.57H223.27Z"/><path class="cls-1" d="M146.21,256.13a1.93,1.93,0,0,0,2.73,0l67.66-67.66a1.93,1.93,0,0,0,0-2.73l-18.27-18.26a1.93,1.93,0,0,0-2.73,0l-48,48-28.39-28.39a2,2,0,0,0-2.73,0L98.19,205.38a1.93,1.93,0,0,0,0,2.73Zm-28.39-64.93,28.39,28.39a2,2,0,0,0,2.73,0l48-48L212.5,187.1,147.57,252l-45.29-45.29Z"/><path class="cls-1" d="M655.32,631.25a16.52,16.52,0,1,0,16.52,16.53A16.54,16.54,0,0,0,655.32,631.25Zm0,29.19A12.67,12.67,0,1,1,668,647.78,12.68,12.68,0,0,1,655.32,660.44Z"/><path class="cls-1" d="M677.33,370.39H709.6a1.93,1.93,0,0,0,0-3.86H677.33a1.93,1.93,0,1,0,0,3.86Z"/><path class="cls-1" d="M655.31,443.5a46.37,46.37,0,0,0-33,13.68,1.93,1.93,0,0,0,2.73,2.73,42.85,42.85,0,0,1,60.6,0,1.93,1.93,0,0,0,2.73-2.73A46.4,46.4,0,0,0,655.31,443.5Z"/><path class="cls-1" d="M603.2,438.11a73.78,73.78,0,0,1,104.21,0,1.93,1.93,0,1,0,2.73-2.73,77.64,77.64,0,0,0-109.67,0,1.93,1.93,0,0,0,2.73,2.73Z"/><path class="cls-1" d="M231.59,83.79H206.7a1.93,1.93,0,0,0,0,3.86h24.89a1.93,1.93,0,1,0,0-3.86Z"/><path class="cls-1" d="M107,67.23a1.93,1.93,0,0,0-2.73,0L95.9,75.62l-8.39-8.39A1.93,1.93,0,1,0,84.78,70l8.39,8.39-8.39,8.39a1.93,1.93,0,1,0,2.73,2.73l8.39-8.39,8.39,8.39A1.93,1.93,0,0,0,107,86.74l-8.39-8.39L107,70A1.93,1.93,0,0,0,107,67.23Z"/><path class="cls-1" d="M722.39,346H602.06a190.76,190.76,0,0,0,2.8-32.55c0-4-.14-7.92-.38-11.84h71.74a40.9,40.9,0,0,0,40.86-40.85V241.35a40.9,40.9,0,0,0-40.86-40.85H567.58a190.19,190.19,0,0,0-315.42,13.76V87.94a34.74,34.74,0,0,0-34.7-34.7H97.31a34.74,34.74,0,0,0-34.7,34.7v226a1.93,1.93,0,0,0,1.93,1.93H224.21a190.3,190.3,0,0,0,3.93,36.28H93.07a30.49,30.49,0,0,0-30.46,30.45V473a30.49,30.49,0,0,0,30.46,30.46H214.2c11.34,29.92,51.29,38.44,53,38.79a2,2,0,0,0,.39,0h0a2,2,0,0,0,2-1.93,1.92,1.92,0,0,0-.64-1.44c-8.46-12.95-11.93-27-13.33-35.46h7A30.49,30.49,0,0,0,293.1,473V460A190,190,0,0,0,561.73,434V626h0V645a26.54,26.54,0,0,0,26.51,26.51H722.39A26.54,26.54,0,0,0,748.9,645V372.56A26.54,26.54,0,0,0,722.39,346Zm0,3.86A22.68,22.68,0,0,1,745,372.56V387h-155a188.71,188.71,0,0,0,11.26-37.1ZM676.22,204.35a37,37,0,0,1,37,37v19.46a37,37,0,0,1-37,37h-72a189.2,189.2,0,0,0-33.84-93.45ZM66.47,87.94A30.87,30.87,0,0,1,97.31,57.09H217.46a30.88,30.88,0,0,1,30.84,30.84v8.31H66.47ZM224.2,312H66.47V100.11H248.31V220.84A189.13,189.13,0,0,0,224.2,312Zm65,161.05a26.63,26.63,0,0,1-26.59,26.6h-9.26a1.93,1.93,0,0,0-1.91,2.2,101.34,101.34,0,0,0,11.95,35.47c-10.9-3.2-38.13-13.34-46-36.37a1.93,1.93,0,0,0-1.82-1.3H93.07A26.63,26.63,0,0,1,66.47,473V382.56A26.63,26.63,0,0,1,93.07,356H229a190.51,190.51,0,0,0,60.26,100.7Zm125.27,26.81A185.51,185.51,0,0,1,293.1,454.73q-2-1.68-3.86-3.42A186.46,186.46,0,0,1,233.09,356q-.45-1.92-.86-3.86a186.28,186.28,0,0,1-4-36.28c0-.78,0-1.55,0-2.33,0-.51,0-1,0-1.53a185.16,185.16,0,0,1,20.11-82.65q1.85-3.64,3.86-7.18A186.19,186.19,0,0,1,562.57,200.5q1.46,1.91,2.87,3.86a185.27,185.27,0,0,1,34.74,93.45q.16,1.92.28,3.86c.25,3.92.39,7.86.39,11.84A186.74,186.74,0,0,1,598,346c-.23,1.29-.48,2.58-.73,3.86A184.75,184.75,0,0,1,585.73,387q-.84,1.94-1.71,3.86a186.5,186.5,0,0,1-18.43,31.59q-1.89,2.61-3.86,5.15A186.11,186.11,0,0,1,414.52,499.84Zm173.89-109H745V624.08h-63.8V563.47h20a1.93,1.93,0,0,0,1.72-2.81L657,471.27a1.93,1.93,0,0,0-3.43,0l-45.9,89.39a1.93,1.93,0,0,0,1.72,2.81h20v60.61H565.59V429.14A190.59,190.59,0,0,0,588.41,390.86Zm44.84,170.68a1.93,1.93,0,0,0-1.93-1.93H612.58l42.74-83.23,42.73,83.23H679.31a1.93,1.93,0,0,0-1.93,1.93v62.54H633.25ZM745,645a22.68,22.68,0,0,1-22.65,22.65H588.24A22.68,22.68,0,0,1,565.59,645v-17H745Z"/><path class="cls-1" d="M542.25,324.61a18,18,0,0,0-17.14,12.67L524,340.82H503.43V329.6c0-20.23-15-31.83-41.17-31.83h-47l-.38-4.59c-1.59-19.06-9.23-32.84-23.38-42.12-14.47-9.49-36.21-14.3-64.61-14.3H300.35V261.7l-1.83,1.5a8.87,8.87,0,0,0-3.31,6.86,9,9,0,0,0,18,0,8.82,8.82,0,0,0-3.3-6.85l-1.84-1.5V244.48h18.8c72.22,0,80.57,32.14,80.57,56.32s-8.35,56.32-80.57,56.32h-18.8v-17.2l1.84-1.5a8.84,8.84,0,0,0,3.3-6.87,9,9,0,0,0-18,0,8.89,8.89,0,0,0,3.31,6.88l1.83,1.5v24.88h26.55c28,0,49.49-4.68,63.94-13.9,14.11-9,21.92-22.36,23.85-40.83l.47-4.48h47.1c15.18,0,33.27,4.16,33.27,24v11.22h-50a27.12,27.12,0,1,0,0,54.24h57.89V348.67h21.74l1.44,2.54a17.91,17.91,0,1,0,15.65-26.6Zm-46.72,62.61h-50a19.28,19.28,0,1,1,0-38.55h50Zm46.72-31a13.76,13.76,0,1,1,13.8-13.75A13.78,13.78,0,0,1,542.25,356.25Z"/></g></svg>